<?xml version="1.0" standalone="no"?><!DOCTYPE svg PUBLIC "-//W3C//DTD SVG 1.1//EN" "http://www.w3.org/Graphics/SVG/1.1/DTD/svg11.dtd"><svg t="1519802955646" class="icon" style="" viewBox="0 0 1024 1024" version="1.1" xmlns="http://www.w3.org/2000/svg" p-id="12855" xmlns:xlink="http://www.w3.org/1999/xlink" width="200" height="200"><defs><style type="text/css"></style></defs><path d="M690.346667 836.266667 604.586667 687.786667C646.4 657.066667 675.413333 609.28 681.386667 554.666667L853.333333 554.666667C846.08 672.426667 782.933333 774.826667 690.346667 836.266667M554.666667 299.946667 554.666667 128C738.133333 139.093333 884.906667 285.866667 896 469.333333L724.053333 469.333333C714.24 380.16 643.84 309.76 554.666667 299.946667M298.666667 533.333333C298.666667 560.64 304.213333 586.666667 314.88 610.133333L166.4 695.893333C141.653333 646.826667 128 591.786667 128 533.333333 128 340.053333 279.04 182.186667 469.333333 170.666667L469.333333 342.613333C373.333333 353.28 298.666667 434.346667 298.666667 533.333333M490.666667 896C363.946667 896 252.586667 832 187.733333 733.013333L336.213333 647.253333C371.2 694.613333 426.666667 725.333333 490.666667 725.333333 517.973333 725.333333 544 719.786667 567.466667 709.12L653.226667 857.6C604.16 882.346667 549.12 896 490.666667 896Z" p-id="12856"></path></svg>