<?xml version="1.0" standalone="no"?><!DOCTYPE svg PUBLIC "-//W3C//DTD SVG 1.1//EN" "http://www.w3.org/Graphics/SVG/1.1/DTD/svg11.dtd"><svg t="1519802269953" class="icon" style="" viewBox="0 0 1024 1024" version="1.1" xmlns="http://www.w3.org/2000/svg" p-id="10448" xmlns:xlink="http://www.w3.org/1999/xlink" width="200" height="200"><defs><style type="text/css"></style></defs><path d="M960 480c-17.6 0-32 14.4-32 32 0 229.6-186.4 416-416 416S96 741.6 96 512c0-218.8 169.2-398.4 384-414.8V640c0 17.6 14.4 32 32 32s32-14.4 32-32V64c0-17.6-14.4-32-32-32C246.8 32 32 246.8 32 512s214.8 480 480 480 480-214.8 480-480c0-17.6-14.4-32-32-32z" fill="" p-id="10449"></path><path d="M736 224c-17.6 0-32 14.4-32 32v384c0 17.6 14.4 32 32 32s32-14.4 32-32V256c0-17.6-14.4-32-32-32zM288 352c-17.6 0-32 14.4-32 32v256c0 17.6 14.4 32 32 32s32-14.4 32-32V384c0-17.6-14.4-32-32-32z" fill="" p-id="10450"></path></svg>