<?xml version="1.0" standalone="no"?><!DOCTYPE svg PUBLIC "-//W3C//DTD SVG 1.1//EN" "http://www.w3.org/Graphics/SVG/1.1/DTD/svg11.dtd"><svg t="1519802252406" class="icon" style="" viewBox="0 0 1024 1024" version="1.1" xmlns="http://www.w3.org/2000/svg" p-id="10334" xmlns:xlink="http://www.w3.org/1999/xlink" width="200" height="200"><defs><style type="text/css"></style></defs><path d="M608 41.6v65.6c152.8 36 272.8 156 308.8 308.8h65.6C944 228 796 80 608 41.6zM960 480H544V64c0-17.6-14.4-32-32-32C246.8 32 32 246.8 32 512s214.8 480 480 480 480-214.8 480-480c0-17.6-14.4-32-32-32zM512 928c-229.6 0-416-186.4-416-416 0-218.8 169.2-398.4 384-414.8V512c0 17.6 14.4 32 32 32h414.8c-16.4 214.8-196 384-414.8 384z" fill="" p-id="10335"></path></svg>