<?xml version="1.0" standalone="no"?><!DOCTYPE svg PUBLIC "-//W3C//DTD SVG 1.1//EN" "http://www.w3.org/Graphics/SVG/1.1/DTD/svg11.dtd"><svg t="1519802898652" class="icon" style="" viewBox="0 0 1024 1024" version="1.1" xmlns="http://www.w3.org/2000/svg" p-id="11706" xmlns:xlink="http://www.w3.org/1999/xlink" width="200" height="200"><defs><style type="text/css"></style></defs><path d="M923.008 888H135.008V99.008q0-15.008-10.496-25.504t-25.504-10.496-25.504 10.496-10.496 25.504v824.992q0 15.008 10.496 25.504t25.504 10.496h824q15.008 0 25.504-10.496t10.496-25.504-10.496-25.504-25.504-10.496zM252.992 636.512q0-27.488 19.008-46.496t46.496-19.008 47.008 19.008 19.488 46.496-19.488 47.008-47.008 19.488T272 683.52t-19.008-47.008zM512 596.992q0-35.008 24.992-60T597.504 512t60.512 24.992 24.992 60-24.992 60-60.512 24.992-60.512-24.992T512 596.992z m51.008-214.976q0-24.992 17.504-42.496t42.496-17.504 42.496 17.504 17.504 42.496-17.504 42.496-42.496 17.504-42.496-17.504-17.504-42.496z m241.984-143.52q0-18.496 12.992-32t32-13.504 32.512 13.504 13.504 32-13.504 32-32.512 13.504-32-13.504-12.992-32z m25.024 191.52q0-14.016 9.504-23.488t23.488-9.504 23.488 9.504 9.504 23.488-9.504 23.488-23.488 9.504-23.488-9.504-9.504-23.488z" p-id="11707"></path></svg>