<?xml version="1.0" standalone="no"?><!DOCTYPE svg PUBLIC "-//W3C//DTD SVG 1.1//EN" "http://www.w3.org/Graphics/SVG/1.1/DTD/svg11.dtd"><svg t="1519802310100" class="icon" style="" viewBox="0 0 1024 1024" version="1.1" xmlns="http://www.w3.org/2000/svg" p-id="11021" xmlns:xlink="http://www.w3.org/1999/xlink" width="200" height="200"><defs><style type="text/css"></style></defs><path d="M926.457 786.544H129.543V259.927c0-17.673-14.327-32-32-32-17.673 0-32 14.327-32 32v558.617c0 17.673 14.327 32 32 32h828.915c17.673 0 32-14.327 32-32s-14.328-32-32.001-32z" p-id="11022"></path><path d="M192.273 254.555c11.892-9.726 26.229-14.461 40.48-14.461 18.538 0 36.928 8.016 49.579 23.484l138.176 168.95L555.92 270.364c12.659-15.16 30.841-22.981 49.159-22.981 0.728 0 1.456 0.021 2.184 0.046 0.825-0.032 1.65-0.048 2.474-0.048 19.535 0 38.823 8.912 51.386 25.785l276.313 371.147c21.107 28.352 15.234 68.447-13.117 89.554-28.352 21.107-68.446 15.235-89.555-13.117L604.67 411.685 477.434 564.059a64.27 64.27 0 0 1-8.571 8.484 64.266 64.266 0 0 1-9.09 9.089c-27.359 22.376-67.681 18.336-90.059-9.024L183.25 344.613c-22.377-27.361-18.337-67.681 9.023-90.058z" p-id="11023"></path></svg>