<?xml version="1.0" standalone="no"?><!DOCTYPE svg PUBLIC "-//W3C//DTD SVG 1.1//EN" "http://www.w3.org/Graphics/SVG/1.1/DTD/svg11.dtd"><svg t="1519802961682" class="icon" style="" viewBox="0 0 1024 1024" version="1.1" xmlns="http://www.w3.org/2000/svg" p-id="12969" xmlns:xlink="http://www.w3.org/1999/xlink" width="200" height="200"><defs><style type="text/css"></style></defs><path d="M512 64C264.64 64 64 264.64 64 512c0 247.424 200.64 448 448 448 247.488 0 448-200.576 448-448C960 264.64 759.488 64 512 64zM894.976 480l-136.832 0c-9.344-15.872-24.96-26.688-43.84-29.888l-150.4-229.184C570.944 210.688 576 198.976 576 185.6c0-25.28-14.912-46.528-36.096-56.96C728.704 142.272 879.488 291.776 894.976 480zM541.696 584.256C532.736 579.456 522.944 576 512 576 501.888 576 492.672 578.816 484.16 582.976L383.232 515.712C383.296 514.432 384 513.344 384 512c0-11.136-3.584-21.056-8.576-30.208l139.712-232.832c0.384 0 0.704-0.192 1.152-0.192l133.952 230.592C644.288 489.088 640 499.84 640 512c0 1.472 0.768 2.688 0.832 4.16L541.696 584.256zM484.096 128.64C462.912 139.072 448 160.384 448 185.6c0 12.416 4.48 23.36 10.624 33.216l-137.6 229.376C320.64 448.192 320.32 448 320 448 296.512 448 276.928 461.248 265.792 480L128.896 480C144.384 291.776 295.296 142.272 484.096 128.64zM128.896 544l136.96 0C276.928 562.752 296.576 576 320 576c10.112 0 19.328-2.816 27.84-6.976l100.928 67.328C448.64 637.632 448 638.656 448 640c0 23.424 13.248 43.072 32 54.208l0 200.96C293.12 879.68 144.32 730.944 128.896 544zM544 895.104l0-200.96C562.752 683.072 576 663.424 576 640c0-1.152-0.576-1.984-0.64-3.136l107.008-65.28C689.216 574.144 696.32 576 704 576c23.424 0 43.072-13.248 54.208-32l136.832 0C879.616 730.944 730.88 879.68 544 895.104z" p-id="12970"></path></svg>