<?xml version="1.0" standalone="no"?><!DOCTYPE svg PUBLIC "-//W3C//DTD SVG 1.1//EN" "http://www.w3.org/Graphics/SVG/1.1/DTD/svg11.dtd"><svg t="1519802944622" class="icon" style="" viewBox="0 0 1024 1024" version="1.1" xmlns="http://www.w3.org/2000/svg" p-id="12627" xmlns:xlink="http://www.w3.org/1999/xlink" width="200" height="200"><defs><style type="text/css"></style></defs><path d="M512 64C264.64 64 64 264.64 64 512c0 247.424 200.64 448 448 448 247.488 0 448-200.576 448-448C960 264.64 759.488 64 512 64zM274.752 416.832l89.856 32.896C356.48 468.864 352 489.92 352 512c0 72.128 48.256 132.48 113.92 152.448-8.704 30.528-17.664 62.016-26.176 91.968C333.824 725.056 256 628.096 256 512 256 478.272 262.912 446.272 274.752 416.832zM512.768 508.416C525.44 519.488 567.104 555.84 609.344 594.24 590.528 616.448 564.672 632.32 534.912 637.696L512.768 508.416zM512.128 504.96 512 504c0 0-0.192 0.768-0.256 0.896L508.48 504.768c0 0 0.96 0.832 2.624 2.304C507.904 518.272 492.864 570.432 474.688 633.792 422.336 617.728 384 569.6 384 512c0-18.24 3.968-35.52 10.816-51.264l116.928 42.816c0 0-27.072-44.992-62.08-102.656C468.16 390.464 489.28 384 512 384c70.336 0 127.232 56.704 127.872 126.848L512.128 504.96zM540.288 669.12c36.928-6.656 68.992-25.984 92.48-53.312 28.736 26.56 54.656 51.712 68.288 67.456-37.376 41.28-87.488 70.272-144.576 80.256L540.288 669.12zM767.488 516.864l-95.552-4.48C671.936 512.256 672 512.128 672 512c0-88.192-71.744-160-160-160-28.8 0-55.488 8.256-78.848 21.632-16.256-26.688-33.28-54.656-49.856-81.728C421.184 269.632 464.832 256 512 256c141.376 0 256 114.624 256 256C768 513.664 767.552 515.2 767.488 516.864zM127.232 512c0-49.28 9.6-96.192 26.496-139.52l73.152 26.752C212.992 434.24 204.8 472.128 204.8 512c0 139.328 93.76 255.872 221.056 293.376-9.152 32.448-16.576 59.264-21.056 75.968C244.544 834.88 127.232 687.232 127.232 512zM578.24 890.624l-13.184-76.8C709.12 788.48 819.2 663.168 819.2 512c0-169.408-137.792-307.2-307.2-307.2-56.96 0-109.696 16.64-155.456 43.776C340.352 222.4 325.952 199.36 314.88 182.016 372.608 147.456 439.872 127.232 512 127.232c212.48 0 384.64 172.224 384.64 384.768C896.64 701.888 759.04 859.2 578.24 890.624z" p-id="12628"></path></svg>