<?xml version="1.0" standalone="no"?><!DOCTYPE svg PUBLIC "-//W3C//DTD SVG 1.1//EN" "http://www.w3.org/Graphics/SVG/1.1/DTD/svg11.dtd"><svg t="1519802914191" class="icon" style="" viewBox="0 0 1024 1024" version="1.1" xmlns="http://www.w3.org/2000/svg" p-id="11935" xmlns:xlink="http://www.w3.org/1999/xlink" width="200" height="200"><defs><style type="text/css"></style></defs><path d="M464 542.208V256.208a32.336 32.336 0 0 0-36-32c-171.44 19.2-301.92 173.84-281.984 354.432 16.432 148.736 138.992 268.64 288.032 282.208 10.08 0.912 20.064 1.36 29.952 1.36 75.616 0 145.104-26.224 199.856-70.08 14.848-11.888 15.84-34.224 2.4-47.68L464 542.224z m0 288c-8.96 0-18.064-0.416-27.056-1.232-133.088-12.096-244.48-121.232-259.12-253.856-17.488-158.336 96.32-301.488 253.728-319.104h0.096l0.352 0.192v299.248l211.856 211.696c-51.52 41.248-113.712 63.04-179.856 63.04zM878 574.208H669.248c-28.496 0-42.784 34.464-22.624 54.624l147.6 147.6c6.32 6.32 14.56 9.44 22.8 9.44 9.376 0 18.72-4.064 25.072-12.016a318.512 318.512 0 0 0 67.904-163.712 32.32 32.32 0 0 0-32-35.936z m-61.152 179.6l-147.6-147.6h208.752l0.208 0.384a284.448 284.448 0 0 1-61.344 147.216z" fill="" p-id="11936"></path><path d="M560 510.208h254a32.32 32.32 0 0 0 32-35.952c-16.544-148-134.048-265.504-282.048-282.048a32.32 32.32 0 0 0-35.936 32v254a32 32 0 0 0 31.984 32z m254-32H775.52l32.688-32.688c2.48 10.72 4.576 21.568 5.792 32.688z m-43.824-122.656a287.04 287.04 0 0 1 27.664 55.088l-67.568 67.568H647.52l122.656-122.656z m-18.96-26.288l-148.944 148.944H560v-40.48l149.968-149.968a292.64 292.64 0 0 1 41.248 41.504z m-67.424-60.592L560 392.48V309.76l69.024-69.04a287.04 287.04 0 0 1 54.768 27.968zM560 224.224c0.032-0.048 0.192-0.224 0.32-0.224 11.568 1.28 22.864 3.52 33.984 6.192L560 264.48v-40.272z" fill="" p-id="11937"></path></svg>