<?xml version="1.0" standalone="no"?><!DOCTYPE svg PUBLIC "-//W3C//DTD SVG 1.1//EN" "http://www.w3.org/Graphics/SVG/1.1/DTD/svg11.dtd"><svg t="1519802920343" class="icon" style="" viewBox="0 0 1024 1024" version="1.1" xmlns="http://www.w3.org/2000/svg" p-id="12165" xmlns:xlink="http://www.w3.org/1999/xlink" width="200" height="200"><defs><style type="text/css"></style></defs><path d="M160 828.912v-544H128v576h768v-32H160z" fill="" p-id="12166"></path><path d="M256 764.912h128v-192h-128v192z m32-160h64v128h-64v-128zM608 764.912v-256h-128v256h128z m-96-224h64v192h-64v-192zM704 764.912h128v-320h-128v320z m32-288h64v256h-64v-256zM262.976 459.808L776 259.088l-51.744 57.344 23.744 21.44 117.312-130-174.4-15.872-2.88 31.872 73.088 6.656-509.808 199.472z" fill="" p-id="12167"></path></svg>