<?xml version="1.0" standalone="no"?><!DOCTYPE svg PUBLIC "-//W3C//DTD SVG 1.1//EN" "http://www.w3.org/Graphics/SVG/1.1/DTD/svg11.dtd"><svg t="1519802917445" class="icon" style="" viewBox="0 0 1024 1024" version="1.1" xmlns="http://www.w3.org/2000/svg" p-id="12050" xmlns:xlink="http://www.w3.org/1999/xlink" width="200" height="200"><defs><style type="text/css"></style></defs><path d="M304 672h128V416h-128v256z m32-224h64v192h-64V448zM528 672h128V480h-128v192z m32-160h64v128h-64v-128zM752 672h128V384h-128v288z m32-256h64v224h-64V416zM368 352c23.488 0 43.808-12.8 54.944-31.648L528.16 350.4c0 0.528-0.16 1.04-0.16 1.584a64 64 0 1 0 128 0c0-3.296-0.48-6.448-0.96-9.6l110.56-47.392A63.648 63.648 0 0 0 816 320a64 64 0 1 0-64-64c0 3.296 0.48 6.448 0.96 9.6l-110.56 47.392A63.632 63.632 0 0 0 592 288c-23.488 0-43.808 12.8-54.944 31.648L431.84 289.6c0-0.528 0.16-1.04 0.16-1.584a64 64 0 1 0-64 64z m448-128c17.648 0 32 14.352 32 32s-14.352 32-32 32-32-14.352-32-32 14.352-32 32-32z m-224 96c17.648 0 32 14.352 32 32s-14.352 32-32 32-32-14.352-32-32 14.352-32 32-32z m-224-64c17.648 0 32 14.352 32 32s-14.352 32-32 32-32-14.352-32-32 14.352-32 32-32zM112 160h64v32H112zM112 256h64v32H112zM112 352h64v32H112zM112 448h64v32H112zM112 544h64v32H112zM112 640h64v32H112zM112 736h64v32H112zM304 800h32v64h-32zM208 800h32v64h-32zM400 800h32v64h-32zM496 800h32v64h-32zM592 800h32v64h-32zM688 800h32v64h-32zM784 800h32v64h-32zM880 800h32v64h-32z" fill="" p-id="12051"></path><path d="M240 736V160h-32v608h704v-32H240z" fill="" p-id="12052"></path></svg>