<?xml version="1.0" standalone="no"?><!DOCTYPE svg PUBLIC "-//W3C//DTD SVG 1.1//EN" "http://www.w3.org/Graphics/SVG/1.1/DTD/svg11.dtd"><svg t="1519802911126" class="icon" style="" viewBox="0 0 1024 1024" version="1.1" xmlns="http://www.w3.org/2000/svg" p-id="11820" xmlns:xlink="http://www.w3.org/1999/xlink" width="200" height="200"><defs><style type="text/css"></style></defs><path d="M736 768h128V320h-128v448z m32-416h64v384h-64V352zM544 480v288h128V480h-128z m96 256h-64V512h64v224zM352 576v192h128V576h-128z m96 160h-64v-128h64v128zM767.52 64l38.272 38.08C681.504 251.36 506.832 394.304 344.64 478l14.688 28.432c164.96-85.12 342.4-230.112 469.184-381.76L864 160V64h-96.48zM160 64h64v32h-64zM160 160h64v32h-64zM160 256h64v32h-64zM160 352h64v32h-64zM160 448h64v32h-64zM160 544h64v32h-64zM160 640h64v32h-64zM160 736h64v32h-64zM160 832h64v32h-64zM256 896h32v64h-32zM352 896h32v64h-32zM448 896h32v64h-32zM544 896h32v64h-32zM640 896h32v64h-32zM736 896h32v64h-32zM832 896h32v64h-32z" fill="" p-id="11821"></path><path d="M288 64h-32v800h608v-32H288V64z" fill="" p-id="11822"></path></svg>